solid OpenSCAD_Model
  facet normal 0 0 1
    outer loop
      vertex 7.25 6.84999 1
      vertex 6.84999 5.84999 1
      vertex 7.25 5.84999 1
    endloop
  endfacet
  facet normal 0 0 1
    outer loop
      vertex 6.84999 5.84999 1
      vertex 2.5 6.84999 1
      vertex 6.84999 -5.84999 1
    endloop
  endfacet
  facet normal -0 0 1
    outer loop
      vertex 2.5 6.84999 1
      vertex 6.84999 5.84999 1
      vertex 7.25 6.84999 1
    endloop
  endfacet
  facet normal -0 0 1
    outer loop
      vertex 6.84999 -5.84999 1
      vertex 7.25 -6.84999 1
      vertex 7.25 -5.84999 1
    endloop
  endfacet
  facet normal 0 0 1
    outer loop
      vertex 6.84999 -5.84999 1
      vertex 2.5 -6.84999 1
      vertex 7.25 -6.84999 1
    endloop
  endfacet
  facet normal 0 0 1
    outer loop
      vertex 2.5 -6.84999 1
      vertex 6.84999 -5.84999 1
      vertex 2.5 6.84999 1
    endloop
  endfacet
  facet normal 0 0 1
    outer loop
      vertex -2.5 6.84999 1
      vertex -6.84999 5.84999 1
      vertex -2.5 -6.84999 1
    endloop
  endfacet
  facet normal -0 0 1
    outer loop
      vertex -7.25 6.84999 1
      vertex -6.84999 5.84999 1
      vertex -2.5 6.84999 1
    endloop
  endfacet
  facet normal 0 0 1
    outer loop
      vertex -6.84999 5.84999 1
      vertex -7.25 6.84999 1
      vertex -7.25 5.84999 1
    endloop
  endfacet
  facet normal 0 0 1
    outer loop
      vertex -2.5 6.84999 1
      vertex 2.5 6.84999 1
      vertex 2.5 7.65 1
    endloop
  endfacet
  facet normal 0 0 1
    outer loop
      vertex 2.5 6.84999 1
      vertex -2.5 6.84999 1
      vertex 2.5 -6.84999 1
    endloop
  endfacet
  facet normal 0 0 1
    outer loop
      vertex -2.5 6.84999 1
      vertex 2.5 7.65 1
      vertex -2.5 7.65 1
    endloop
  endfacet
  facet normal 0 0 1
    outer loop
      vertex -2.5 -6.84999 1
      vertex 2.5 -6.84999 1
      vertex -2.5 6.84999 1
    endloop
  endfacet
  facet normal 0 0 1
    outer loop
      vertex 2.5 -6.84999 1
      vertex -2.5 -6.84999 1
      vertex 2.5 -7.65 1
    endloop
  endfacet
  facet normal 0 0 1
    outer loop
      vertex 2.5 -7.65 1
      vertex -2.5 -6.84999 1
      vertex -2.5 -7.65 1
    endloop
  endfacet
  facet normal -0 0 1
    outer loop
      vertex -6.84999 -5.84999 1
      vertex -2.5 -6.84999 1
      vertex -6.84999 5.84999 1
    endloop
  endfacet
  facet normal 0 0 1
    outer loop
      vertex -7.25 -6.84999 1
      vertex -6.84999 -5.84999 1
      vertex -7.25 -5.84999 1
    endloop
  endfacet
  facet normal 0 0 1
    outer loop
      vertex -6.84999 -5.84999 1
      vertex -7.25 -6.84999 1
      vertex -2.5 -6.84999 1
    endloop
  endfacet
  facet normal 0 1 -0
    outer loop
      vertex -6.84999 5.84999 1
      vertex -7.25 5.84999 9.4
      vertex -6.84999 5.84999 9.4
    endloop
  endfacet
  facet normal 0 1 0
    outer loop
      vertex -7.25 5.84999 9.4
      vertex -6.84999 5.84999 1
      vertex -7.25 5.84999 1
    endloop
  endfacet
  facet normal 1 -0 0
    outer loop
      vertex -6.84999 -5.84999 9.4
      vertex -6.84999 5.84999 1
      vertex -6.84999 5.84999 9.4
    endloop
  endfacet
  facet normal 1 0 0
    outer loop
      vertex -6.84999 5.84999 1
      vertex -6.84999 -5.84999 9.4
      vertex -6.84999 -5.84999 1
    endloop
  endfacet
  facet normal 0 -1 0
    outer loop
      vertex -7.25 -5.84999 1
      vertex -6.84999 -5.84999 9.4
      vertex -7.25 -5.84999 9.4
    endloop
  endfacet
  facet normal 0 -1 -0
    outer loop
      vertex -6.84999 -5.84999 9.4
      vertex -7.25 -5.84999 1
      vertex -6.84999 -5.84999 1
    endloop
  endfacet
  facet normal 1 -0 0
    outer loop
      vertex -7.25 -6.84999 9.4
      vertex -7.25 -5.84999 1
      vertex -7.25 -5.84999 9.4
    endloop
  endfacet
  facet normal 1 0 0
    outer loop
      vertex -7.25 -5.84999 1
      vertex -7.25 -6.84999 9.4
      vertex -7.25 -6.84999 1
    endloop
  endfacet
  facet normal 0 1 0
    outer loop
      vertex 7.25 -6.84999 9.4
      vertex 2.5 -6.84999 8.05
      vertex -7.25 -6.84999 9.4
    endloop
  endfacet
  facet normal 0 1 -0
    outer loop
      vertex 7.25 -6.84999 1
      vertex 2.5 -6.84999 8.05
      vertex 7.25 -6.84999 9.4
    endloop
  endfacet
  facet normal 0 1 0
    outer loop
      vertex 2.5 -6.84999 8.05
      vertex 7.25 -6.84999 1
      vertex 2.5 -6.84999 1
    endloop
  endfacet
  facet normal 0 1 -0
    outer loop
      vertex -2.5 -6.84999 8.05
      vertex -7.25 -6.84999 9.4
      vertex 2.5 -6.84999 8.05
    endloop
  endfacet
  facet normal 0 1 0
    outer loop
      vertex -7.25 -6.84999 1
      vertex -2.5 -6.84999 8.05
      vertex -2.5 -6.84999 1
    endloop
  endfacet
  facet normal 0 1 0
    outer loop
      vertex -2.5 -6.84999 8.05
      vertex -7.25 -6.84999 1
      vertex -7.25 -6.84999 9.4
    endloop
  endfacet
  facet normal -1 0 0
    outer loop
      vertex 7.25 -6.84999 1
      vertex 7.25 -5.84999 9.4
      vertex 7.25 -5.84999 1
    endloop
  endfacet
  facet normal -1 -0 0
    outer loop
      vertex 7.25 -5.84999 9.4
      vertex 7.25 -6.84999 1
      vertex 7.25 -6.84999 9.4
    endloop
  endfacet
  facet normal 0 -1 0
    outer loop
      vertex 6.84999 -5.84999 1
      vertex 7.25 -5.84999 9.4
      vertex 6.84999 -5.84999 9.4
    endloop
  endfacet
  facet normal 0 -1 -0
    outer loop
      vertex 7.25 -5.84999 9.4
      vertex 6.84999 -5.84999 1
      vertex 7.25 -5.84999 1
    endloop
  endfacet
  facet normal -1 0 0
    outer loop
      vertex 6.84999 -5.84999 1
      vertex 6.84999 5.84999 9.4
      vertex 6.84999 5.84999 1
    endloop
  endfacet
  facet normal -1 -0 0
    outer loop
      vertex 6.84999 5.84999 9.4
      vertex 6.84999 -5.84999 1
      vertex 6.84999 -5.84999 9.4
    endloop
  endfacet
  facet normal 0 1 -0
    outer loop
      vertex 7.25 5.84999 1
      vertex 6.84999 5.84999 9.4
      vertex 7.25 5.84999 9.4
    endloop
  endfacet
  facet normal 0 1 0
    outer loop
      vertex 6.84999 5.84999 9.4
      vertex 7.25 5.84999 1
      vertex 6.84999 5.84999 1
    endloop
  endfacet
  facet normal -1 0 0
    outer loop
      vertex 7.25 5.84999 1
      vertex 7.25 6.84999 9.4
      vertex 7.25 6.84999 1
    endloop
  endfacet
  facet normal -1 -0 0
    outer loop
      vertex 7.25 6.84999 9.4
      vertex 7.25 5.84999 1
      vertex 7.25 5.84999 9.4
    endloop
  endfacet
  facet normal 0 -1 0
    outer loop
      vertex -7.25 6.84999 9.4
      vertex -2.5 6.84999 8.05
      vertex 7.25 6.84999 9.4
    endloop
  endfacet
  facet normal 0 -1 0
    outer loop
      vertex -7.25 6.84999 1
      vertex -2.5 6.84999 8.05
      vertex -7.25 6.84999 9.4
    endloop
  endfacet
  facet normal 0 -1 -0
    outer loop
      vertex -2.5 6.84999 8.05
      vertex -7.25 6.84999 1
      vertex -2.5 6.84999 1
    endloop
  endfacet
  facet normal 0 -1 0
    outer loop
      vertex 2.5 6.84999 8.05
      vertex 7.25 6.84999 9.4
      vertex -2.5 6.84999 8.05
    endloop
  endfacet
  facet normal 0 -1 0
    outer loop
      vertex 7.25 6.84999 1
      vertex 2.5 6.84999 8.05
      vertex 2.5 6.84999 1
    endloop
  endfacet
  facet normal 0 -1 0
    outer loop
      vertex 2.5 6.84999 8.05
      vertex 7.25 6.84999 1
      vertex 7.25 6.84999 9.4
    endloop
  endfacet
  facet normal 1 -0 0
    outer loop
      vertex -7.25 5.84999 9.4
      vertex -7.25 6.84999 1
      vertex -7.25 6.84999 9.4
    endloop
  endfacet
  facet normal 1 0 0
    outer loop
      vertex -7.25 6.84999 1
      vertex -7.25 5.84999 9.4
      vertex -7.25 5.84999 1
    endloop
  endfacet
  facet normal 1 -0 0
    outer loop
      vertex -2.5 6.84999 8.05
      vertex -2.5 7.65 1
      vertex -2.5 7.65 8.05
    endloop
  endfacet
  facet normal 1 0 0
    outer loop
      vertex -2.5 7.65 1
      vertex -2.5 6.84999 8.05
      vertex -2.5 6.84999 1
    endloop
  endfacet
  facet normal 1 -0 0
    outer loop
      vertex -2.5 -7.65 8.05
      vertex -2.5 -6.84999 1
      vertex -2.5 -6.84999 8.05
    endloop
  endfacet
  facet normal 1 0 0
    outer loop
      vertex -2.5 -6.84999 1
      vertex -2.5 -7.65 8.05
      vertex -2.5 -7.65 1
    endloop
  endfacet
  facet normal 0 0 -1
    outer loop
      vertex -2.5 6.84999 8.05
      vertex 2.5 7.65 8.05
      vertex 2.5 6.84999 8.05
    endloop
  endfacet
  facet normal -0 0 -1
    outer loop
      vertex 2.5 7.65 8.05
      vertex -2.5 6.84999 8.05
      vertex -2.5 7.65 8.05
    endloop
  endfacet
  facet normal 0 0 -1
    outer loop
      vertex -2.5 -7.65 8.05
      vertex 2.5 -6.84999 8.05
      vertex 2.5 -7.65 8.05
    endloop
  endfacet
  facet normal -0 0 -1
    outer loop
      vertex 2.5 -6.84999 8.05
      vertex -2.5 -7.65 8.05
      vertex -2.5 -6.84999 8.05
    endloop
  endfacet
  facet normal 0 -1 0
    outer loop
      vertex -2.5 7.65 1
      vertex 2.5 7.65 8.05
      vertex -2.5 7.65 8.05
    endloop
  endfacet
  facet normal 0 -1 -0
    outer loop
      vertex 2.5 7.65 8.05
      vertex -2.5 7.65 1
      vertex 2.5 7.65 1
    endloop
  endfacet
  facet normal -1 0 0
    outer loop
      vertex 2.5 6.84999 1
      vertex 2.5 7.65 8.05
      vertex 2.5 7.65 1
    endloop
  endfacet
  facet normal -1 -0 0
    outer loop
      vertex 2.5 7.65 8.05
      vertex 2.5 6.84999 1
      vertex 2.5 6.84999 8.05
    endloop
  endfacet
  facet normal -1 0 0
    outer loop
      vertex 2.5 -7.65 1
      vertex 2.5 -6.84999 8.05
      vertex 2.5 -6.84999 1
    endloop
  endfacet
  facet normal -1 -0 0
    outer loop
      vertex 2.5 -6.84999 8.05
      vertex 2.5 -7.65 1
      vertex 2.5 -7.65 8.05
    endloop
  endfacet
  facet normal 0 1 -0
    outer loop
      vertex 2.5 -7.65 1
      vertex -2.5 -7.65 8.05
      vertex 2.5 -7.65 8.05
    endloop
  endfacet
  facet normal 0 1 0
    outer loop
      vertex -2.5 -7.65 8.05
      vertex 2.5 -7.65 1
      vertex -2.5 -7.65 1
    endloop
  endfacet
  facet normal 0 0 -1
    outer loop
      vertex -8.825 -8.825 0
      vertex 8.825 8.825 0
      vertex 8.825 -8.825 0
    endloop
  endfacet
  facet normal -0 0 -1
    outer loop
      vertex 8.825 8.825 0
      vertex -8.825 -8.825 0
      vertex -8.825 8.825 0
    endloop
  endfacet
  facet normal -1 0 0
    outer loop
      vertex -8.825 -8.825 0
      vertex -8.825 8.825 9.4
      vertex -8.825 8.825 0
    endloop
  endfacet
  facet normal -1 -0 0
    outer loop
      vertex -8.825 8.825 9.4
      vertex -8.825 -8.825 0
      vertex -8.825 -8.825 9.4
    endloop
  endfacet
  facet normal -0 0 1
    outer loop
      vertex 6.84999 5.84999 9.4
      vertex 7.25 -5.84999 9.4
      vertex 7.25 5.84999 9.4
    endloop
  endfacet
  facet normal 0 0 1
    outer loop
      vertex 7.25 -5.84999 9.4
      vertex 6.84999 5.84999 9.4
      vertex 6.84999 -5.84999 9.4
    endloop
  endfacet
  facet normal 0 0 1
    outer loop
      vertex 7.25 5.84999 9.4
      vertex 8.825 8.825 9.4
      vertex 7.25 6.84999 9.4
    endloop
  endfacet
  facet normal 0 0 1
    outer loop
      vertex 8.825 8.825 9.4
      vertex -7.25 6.84999 9.4
      vertex 7.25 6.84999 9.4
    endloop
  endfacet
  facet normal 0 0 1
    outer loop
      vertex -8.825 8.825 9.4
      vertex -7.25 5.84999 9.4
      vertex -7.25 6.84999 9.4
    endloop
  endfacet
  facet normal 0 0 1
    outer loop
      vertex -7.25 5.84999 9.4
      vertex -8.825 8.825 9.4
      vertex -7.25 -5.84999 9.4
    endloop
  endfacet
  facet normal 0 0 1
    outer loop
      vertex -8.825 -8.825 9.4
      vertex -7.25 -5.84999 9.4
      vertex -8.825 8.825 9.4
    endloop
  endfacet
  facet normal -0 0 1
    outer loop
      vertex -8.825 8.825 9.4
      vertex -7.25 6.84999 9.4
      vertex 8.825 8.825 9.4
    endloop
  endfacet
  facet normal 0 0 1
    outer loop
      vertex 8.825 8.825 9.4
      vertex 7.25 5.84999 9.4
      vertex 8.825 -8.825 9.4
    endloop
  endfacet
  facet normal -0 0 1
    outer loop
      vertex 7.25 -5.84999 9.4
      vertex 8.825 -8.825 9.4
      vertex 7.25 5.84999 9.4
    endloop
  endfacet
  facet normal -0 0 1
    outer loop
      vertex 7.25 -6.84999 9.4
      vertex 8.825 -8.825 9.4
      vertex 7.25 -5.84999 9.4
    endloop
  endfacet
  facet normal -0 0 1
    outer loop
      vertex -7.25 -6.84999 9.4
      vertex 8.825 -8.825 9.4
      vertex 7.25 -6.84999 9.4
    endloop
  endfacet
  facet normal 0 0 1
    outer loop
      vertex -7.25 -6.84999 9.4
      vertex -8.825 -8.825 9.4
      vertex 8.825 -8.825 9.4
    endloop
  endfacet
  facet normal 0 0 1
    outer loop
      vertex -7.25 -5.84999 9.4
      vertex -8.825 -8.825 9.4
      vertex -7.25 -6.84999 9.4
    endloop
  endfacet
  facet normal -0 0 1
    outer loop
      vertex -7.25 5.84999 9.4
      vertex -6.84999 -5.84999 9.4
      vertex -6.84999 5.84999 9.4
    endloop
  endfacet
  facet normal 0 0 1
    outer loop
      vertex -6.84999 -5.84999 9.4
      vertex -7.25 5.84999 9.4
      vertex -7.25 -5.84999 9.4
    endloop
  endfacet
  facet normal 0 1 -0
    outer loop
      vertex 8.825 8.825 0
      vertex -8.825 8.825 9.4
      vertex 8.825 8.825 9.4
    endloop
  endfacet
  facet normal 0 1 0
    outer loop
      vertex -8.825 8.825 9.4
      vertex 8.825 8.825 0
      vertex -8.825 8.825 0
    endloop
  endfacet
  facet normal 1 -0 0
    outer loop
      vertex 8.825 -8.825 9.4
      vertex 8.825 8.825 0
      vertex 8.825 8.825 9.4
    endloop
  endfacet
  facet normal 1 0 0
    outer loop
      vertex 8.825 8.825 0
      vertex 8.825 -8.825 9.4
      vertex 8.825 -8.825 0
    endloop
  endfacet
  facet normal 0 -1 0
    outer loop
      vertex -8.825 -8.825 9.4
      vertex -7.825 -8.825 8.4
      vertex 8.825 -8.825 9.4
    endloop
  endfacet
  facet normal 0 -1 0
    outer loop
      vertex -8.825 -8.825 9.4
      vertex -7.825 -8.825 1
      vertex -7.825 -8.825 8.4
    endloop
  endfacet
  facet normal 0 -1 -0
    outer loop
      vertex -7.825 -8.825 1
      vertex -8.825 -8.825 0
      vertex 7.825 -8.825 1
    endloop
  endfacet
  facet normal 0 -1 0
    outer loop
      vertex -8.825 -8.825 0
      vertex -7.825 -8.825 1
      vertex -8.825 -8.825 9.4
    endloop
  endfacet
  facet normal 0 -1 0
    outer loop
      vertex 7.825 -8.825 8.4
      vertex 8.825 -8.825 9.4
      vertex -7.825 -8.825 8.4
    endloop
  endfacet
  facet normal 0 -1 0
    outer loop
      vertex 7.825 -8.825 1
      vertex 8.825 -8.825 9.4
      vertex 7.825 -8.825 8.4
    endloop
  endfacet
  facet normal 0 -1 0
    outer loop
      vertex 7.825 -8.825 1
      vertex 8.825 -8.825 0
      vertex 8.825 -8.825 9.4
    endloop
  endfacet
  facet normal 0 -1 0
    outer loop
      vertex 8.825 -8.825 0
      vertex 7.825 -8.825 1
      vertex -8.825 -8.825 0
    endloop
  endfacet
  facet normal 0 0 -1
    outer loop
      vertex -7.825 -8.825 8.4
      vertex 7.825 -8.575 8.4
      vertex 7.825 -8.825 8.4
    endloop
  endfacet
  facet normal -0 0 -1
    outer loop
      vertex 7.825 -8.575 8.4
      vertex -7.825 -8.825 8.4
      vertex -7.825 -8.575 8.4
    endloop
  endfacet
  facet normal -1 0 0
    outer loop
      vertex 7.825 -8.825 1
      vertex 7.825 -8.575 8.4
      vertex 7.825 -8.575 1
    endloop
  endfacet
  facet normal -1 -0 0
    outer loop
      vertex 7.825 -8.575 8.4
      vertex 7.825 -8.825 1
      vertex 7.825 -8.825 8.4
    endloop
  endfacet
  facet normal -0 0 1
    outer loop
      vertex -7.825 -8.575 1
      vertex 7.825 -8.825 1
      vertex 7.825 -8.575 1
    endloop
  endfacet
  facet normal 0 0 1
    outer loop
      vertex 7.825 -8.825 1
      vertex -7.825 -8.575 1
      vertex -7.825 -8.825 1
    endloop
  endfacet
  facet normal 0 -1 0
    outer loop
      vertex -7.825 -8.575 1
      vertex 7.825 -8.575 8.4
      vertex -7.825 -8.575 8.4
    endloop
  endfacet
  facet normal 0 -1 -0
    outer loop
      vertex 7.825 -8.575 8.4
      vertex -7.825 -8.575 1
      vertex 7.825 -8.575 1
    endloop
  endfacet
  facet normal 1 -0 0
    outer loop
      vertex -7.825 -8.825 8.4
      vertex -7.825 -8.575 1
      vertex -7.825 -8.575 8.4
    endloop
  endfacet
  facet normal 1 0 0
    outer loop
      vertex -7.825 -8.575 1
      vertex -7.825 -8.825 8.4
      vertex -7.825 -8.825 1
    endloop
  endfacet
endsolid OpenSCAD_Model
